<svg id="cf_logo" data-name="cf logo" xmlns="http://www.w3.org/2000/svg" width="118.974" height="46.667" viewBox="0 0 118.974 46.667">
  <path id="Path_1" data-name="Path 1" d="M136.19,390.964c0-5.333,3.481-9.364,8.815-9.364a8.327,8.327,0,0,1,5.107,1.578,7.019,7.019,0,0,1,2.678,4.932h-4.431a3.237,3.237,0,0,0-3.388-2.83c-2.9,0-4.281,2.431-4.281,5.685,0,3.281,1.653,5.658,4.307,5.658a3.293,3.293,0,0,0,3.479-2.979h4.431a7.05,7.05,0,0,1-2.152,4.581,7.811,7.811,0,0,1-5.735,2.028C139.771,400.253,136.19,396.322,136.19,390.964Z" transform="translate(-136.19 -381.6)" fill="#fff"/>
  <path id="Path_2" data-name="Path 2" d="M260.46,384H268.6a6.928,6.928,0,0,1,4.908,1.62,5.729,5.729,0,0,1,1.8,4.281,5.254,5.254,0,0,1-3.329,5.033l4.155,6.96h-4.988l-3.631-6.334h-2.548v6.334H260.46Zm7.887,8.086c1.578,0,2.478-.8,2.478-2.21s-.9-2.154-2.478-2.154h-3.381v4.357Z" transform="translate(-242.154 -383.646)" fill="#fff"/>
  <path id="Path_3" data-name="Path 3" d="M375.37,384h13.571v3.653h-9.133v3.205h7.837v3.453h-7.837v3.83H389.1V401.9H375.37Z" transform="translate(-340.137 -383.646)" fill="#fff"/>
  <path id="Path_4" data-name="Path 4" d="M480.906,384h4.558l6.467,17.9h-4.665l-1.052-3.23h-6.259l-1.031,3.23H474.47Zm4.281,11.49-1.358-4.332c-.295-.927-.7-2.529-.7-2.529h-.052s-.426,1.6-.726,2.529l-1.37,4.332Z" transform="translate(-424.639 -383.646)" fill="#fff"/>
  <path id="Path_5" data-name="Path 5" d="M585.927,387.752H580.72V384h14.9v3.755h-5.257V401.9h-4.431Z" transform="translate(-515.238 -383.646)" fill="#fff"/>
  <path id="Path_6" data-name="Path 6" d="M693.25,384h4.431v17.9H693.25Z" transform="translate(-611.191 -383.646)" fill="#fff"/>
  <path id="Path_7" data-name="Path 7" d="M731.32,384h4.608l2.8,9.389c.4,1.352.826,3.155.826,3.155h.049s.452-1.828.828-3.155L743.214,384H747.7L741.8,401.9h-4.581Z" transform="translate(-643.654 -383.646)" fill="#fff"/>
  <path id="Path_8" data-name="Path 8" d="M850.66,384h13.57v3.653H855.1v3.205h7.837v3.453H855.1v3.83h9.291V401.9H850.66Z" transform="translate(-745.414 -383.646)" fill="#fff"/>
  <path id="Path_9" data-name="Path 9" d="M141.13,574h13.319v3.727h-8.888v3.638H153v3.579h-7.436v6.962H141.13Z" transform="translate(-140.402 -545.658)" fill="#fff"/>
  <path id="Path_10" data-name="Path 10" d="M235.13,580.948c0-5.358,3.431-9.338,8.838-9.338,5.434,0,8.865,3.977,8.865,9.338s-3.434,9.339-8.865,9.339C238.561,590.287,235.13,586.305,235.13,580.948Zm13.194,0c0-3.255-1.427-5.758-4.331-5.758-2.88,0-4.356,2.5-4.356,5.758s1.473,5.735,4.356,5.735C246.9,586.681,248.324,584.2,248.324,580.948Z" transform="translate(-220.556 -543.62)" fill="#fff"/>
  <path id="Path_11" data-name="Path 11" d="M367,574h8.139a6.92,6.92,0,0,1,4.905,1.62,5.723,5.723,0,0,1,1.8,4.281,5.25,5.25,0,0,1-3.331,5.033l4.157,6.962H377.7l-3.627-6.333h-2.557V591.9H367Zm7.888,8.089c1.576,0,2.478-.8,2.478-2.21s-.9-2.154-2.478-2.154h-3.375v4.357Z" transform="translate(-333 -545.658)" fill="#fff"/>
  <path id="Path_12" data-name="Path 12" d="M477,580.964c0-5.334,3.481-9.364,8.813-9.364a8.334,8.334,0,0,1,5.109,1.576,7.031,7.031,0,0,1,2.68,4.932h-4.43a3.237,3.237,0,0,0-3.388-2.83c-2.9,0-4.281,2.431-4.281,5.686,0,3.279,1.651,5.657,4.306,5.657a3.293,3.293,0,0,0,3.481-2.979h4.432a7.052,7.052,0,0,1-2.139,4.581,7.809,7.809,0,0,1-5.733,2.028C480.583,590.252,477,586.32,477,580.964Z" transform="translate(-426.797 -543.612)" fill="#fff"/>
  <path id="Path_13" data-name="Path 13" d="M601.29,574h13.571v3.656h-9.133v3.205h7.837v3.45h-7.837v3.83h9.28V591.9H601.29Z" transform="translate(-532.778 -545.658)" fill="#fff"/>
  <path id="Path_14" data-name="Path 14" d="M701.41,584.355h4.458c.2,1.8,1.374,2.554,3.5,2.554,1.454,0,2.88-.527,2.88-1.878,0-1.427-1.452-1.728-3.907-2.327-3.1-.728-6.384-1.679-6.384-5.436,0-3.83,3.105-5.508,7.111-5.508,3.881,0,6.887,1.753,7.062,5.508h-4.325c-.174-1.376-1.226-2.154-2.878-2.154-1.553,0-2.579.676-2.579,1.679,0,1.252,1.376,1.553,4.057,2.154,3.329.775,6.334,1.8,6.334,5.633,0,3.756-3.2,5.835-7.336,5.835C704.64,590.415,701.51,588.311,701.41,584.355Z" transform="translate(-618.149 -543.748)" fill="#fff"/>
</svg>
